<svg xmlns="http://www.w3.org/2000/svg" width="586" height="270" viewBox="0 0 586 270" version="1.1"><path d="M 549 35.330 C 542.125 38.737, 529.638 44.812, 521.250 48.831 L 506 56.136 506 106.411 L 506 156.686 533.750 169.955 C 549.013 177.253, 562.063 183.447, 562.750 183.719 C 563.744 184.112, 564 168.290, 564 106.607 C 564 45.152, 563.740 29.014, 562.750 29.067 C 562.063 29.104, 555.875 31.923, 549 35.330 M 474 70.500 L 474 78 485 78 L 496 78 496 70.500 L 496 63 485 63 L 474 63 474 70.500 M 132.050 66.024 C 114.044 68.532, 102.595 80.540, 99.778 99.870 C 95.824 126.999, 110.016 146.641, 135.123 148.785 C 144.842 149.615, 157.756 148.721, 163.500 146.820 L 167.500 145.496 167.791 136.621 C 168.081 127.778, 168.073 127.748, 165.791 128.447 C 150.910 133.005, 137.186 133.057, 129.556 128.586 C 125.789 126.378, 124.271 124.649, 122.280 120.301 C 120.059 115.448, 119.813 113.793, 120.179 106.135 C 120.915 90.751, 126.892 84.242, 141.225 83.216 C 148.154 82.720, 160.815 84.355, 164.336 86.200 C 165.345 86.729, 166.421 86.912, 166.727 86.606 C 167.243 86.090, 167.171 69.838, 166.651 69.317 C 166.522 69.189, 163.735 68.384, 160.458 67.530 C 152.829 65.540, 140.292 64.876, 132.050 66.024 M 18.250 66.706 L 16 67.139 16 107.570 L 16 148 26 148 L 36 148 36.038 135.750 L 36.076 123.500 40.952 118.274 L 45.828 113.048 56.664 130.511 L 67.500 147.975 78.332 147.987 L 89.163 148 86.853 144.250 C 85.582 142.188, 78.795 131.553, 71.771 120.617 C 64.747 109.681, 59 100.456, 59.001 100.117 C 59.002 99.778, 65.258 92.300, 72.905 83.500 C 81.977 73.059, 86.407 67.239, 85.654 66.750 C 85.019 66.338, 80.334 66.051, 75.242 66.113 C 67.955 66.201, 65.496 66.609, 63.692 68.028 C 62.431 69.019, 55.798 76.179, 48.950 83.938 L 36.500 98.046 36.223 82.815 C 36.029 72.164, 35.578 67.351, 34.723 66.808 C 33.462 66.007, 22.240 65.937, 18.250 66.706 M 530.250 72.769 L 521 75.280 521 81.640 L 521 88 516.458 88 L 511.916 88 512.208 95.750 C 512.407 101.042, 512.896 103.540, 513.750 103.625 C 514.438 103.694, 516.350 103.806, 518 103.875 L 521 104 521.022 119.250 C 521.047 136.590, 522.191 140.755, 528.181 145.324 C 532.864 148.896, 543.411 150.467, 551 148.723 L 556.500 147.459 556.790 140.480 L 557.081 133.500 551.125 133.835 C 546.148 134.114, 544.826 133.826, 543.085 132.085 C 541.186 130.186, 541 128.842, 541 117 L 541 104 547.531 104 C 554.942 104, 554.647 104.350, 555.306 94.750 L 555.770 88 548.385 88 L 541 88 541 79 C 541 74.050, 540.663 70.058, 540.250 70.129 C 539.837 70.201, 535.337 71.388, 530.250 72.769 M 197.951 88.301 C 185.644 91.785, 178.775 100.295, 177.362 113.807 C 175.585 130.816, 182.952 143.599, 196.865 147.648 C 204.512 149.873, 222.778 149.113, 229 146.310 C 239.656 141.511, 244.475 132.505, 244.416 117.500 C 244.362 103.608, 239.867 95.528, 229.325 90.371 C 224.508 88.014, 222.283 87.596, 213.121 87.326 C 206.530 87.132, 200.774 87.502, 197.951 88.301 M 284.500 88.348 C 282.300 89.072, 279.083 90.402, 277.352 91.305 C 274.251 92.922, 274.194 92.909, 273.583 90.473 C 272.977 88.060, 272.732 88, 263.481 88 L 254 88 254 118 L 254 148 264 148 L 274 148 274 127.568 L 274 107.136 277.091 104.935 C 278.792 103.724, 282.055 102.523, 284.344 102.265 C 287.726 101.883, 288.879 102.208, 290.503 104 C 292.342 106.031, 292.524 107.858, 292.806 127.103 L 293.112 148 302.556 148 L 312 148 312 127.155 C 312 103.207, 312.043 103.087, 320.841 102.241 C 325.433 101.800, 325.835 101.959, 328.079 105.111 C 330.350 108.300, 330.472 109.323, 330.844 128.224 L 331.234 148 340.958 148 L 350.683 148 351.310 127.077 C 352.018 103.510, 351.255 98.638, 345.907 92.547 C 341.913 87.998, 337.438 86.657, 328.119 87.214 C 322.579 87.545, 318.936 88.414, 314.768 90.399 L 309.035 93.129 305.378 90.339 C 302.358 88.035, 300.569 87.504, 295.110 87.290 C 291.475 87.148, 286.700 87.624, 284.500 88.348 M 364.750 87.725 L 360 88.110 360 118.055 L 360 148 369.980 148 L 379.959 148 380.230 127.281 L 380.500 106.562 384.500 104.297 C 389.082 101.703, 393.746 101.363, 396.559 103.418 C 398.359 104.733, 398.522 106.403, 398.805 126.418 L 399.110 148 408.555 148 L 418 148 418 126.985 L 418 105.971 421.250 103.989 C 425.392 101.464, 431.072 101.429, 434.139 103.910 C 436.466 105.792, 436.504 106.124, 436.806 126.910 L 437.112 148 447.056 148 L 457 148 456.994 125.750 C 456.991 113.311, 456.526 101.834, 455.940 99.723 C 454.551 94.723, 449.758 89.405, 445.319 87.940 C 439.328 85.963, 427.442 87.200, 420.742 90.498 L 414.983 93.333 412.742 91.233 C 409.360 88.066, 405.598 87, 397.795 87 C 391.685 87, 390.057 87.409, 385.846 90 C 380.083 93.546, 380 93.561, 380 91.059 C 380 89.991, 379.663 88.924, 379.250 88.686 C 377.864 87.889, 369.543 87.337, 364.750 87.725 M 467.991 90.250 C 467.987 91.487, 467.699 94.862, 467.352 97.750 L 466.721 103 470.861 103 C 473.490 103, 475.010 103.456, 475.028 104.250 C 475.044 104.938, 475.156 114.950, 475.278 126.500 L 475.500 147.500 485.750 147.785 L 496 148.070 496 118.035 L 496 88 482 88 C 468.151 88, 468 88.024, 467.991 90.250 M 204.256 104.029 C 200.390 105.583, 198.008 110.786, 198.004 117.685 C 197.997 129.288, 201.068 133, 210.673 133 C 216.165 133, 217.371 132.640, 220.123 130.182 C 223.021 127.592, 223.311 126.761, 223.701 119.932 C 224.182 111.486, 222.349 106.452, 218 104.279 C 215.125 102.842, 207.551 102.704, 204.256 104.029 M 23.455 201.455 C 18.269 206.640, 21.570 218, 28.263 218 C 30.986 218, 34.842 215.508, 33.773 214.439 C 33.374 214.041, 32.368 214.279, 31.537 214.969 C 29.314 216.814, 25.098 215.387, 23.965 212.407 C 21.516 205.966, 24.676 200.285, 30.104 201.371 C 33.145 201.979, 34.136 200.650, 31.418 199.607 C 28.380 198.441, 25.891 199.018, 23.455 201.455 M 38.334 201.575 C 36.069 203.840, 35.818 204.758, 36.247 209.220 C 36.613 213.029, 37.327 214.747, 39.117 216.123 C 44.708 220.422, 51 216.386, 51 208.500 C 51 200.116, 43.755 196.154, 38.334 201.575 M 55.422 200.344 C 54.393 203.024, 55.470 216.330, 56.750 216.753 C 57.668 217.057, 58 215.355, 58 210.338 L 58 203.509 61.750 209.929 C 67.176 219.220, 68 218.969, 68 208.024 C 68 202.184, 67.639 199.105, 67 199.500 C 66.450 199.840, 65.989 203.129, 65.976 206.809 L 65.952 213.500 61.900 206.250 C 57.889 199.075, 56.422 197.737, 55.422 200.344 M 74.518 200.625 C 71.897 203.246, 73.078 206.237, 77.750 208.810 C 80.445 210.294, 82 211.847, 82 213.056 C 82 215.452, 77.598 216.741, 75.463 214.969 C 74.632 214.279, 73.626 214.041, 73.227 214.439 C 72.167 215.500, 76.004 218, 78.691 218 C 79.961 218, 81.900 217.100, 83 216 C 86.351 212.649, 85.526 210.309, 80 207.500 C 75.719 205.324, 74.768 203.984, 76.243 202.207 C 77.005 201.289, 78.530 201.042, 80.936 201.446 C 84.269 202.006, 84.374 201.946, 82.559 200.523 C 80.031 198.540, 76.559 198.584, 74.518 200.625 M 88.639 199.694 C 88.288 200.046, 88 204.083, 88 208.667 C 88 215.407, 88.287 217, 89.500 217 C 90.715 217, 91 215.395, 91 208.559 C 91 200.793, 90.273 198.061, 88.639 199.694 M 96.500 201.359 C 94.442 204.501, 95.452 206.680, 100.055 209.028 C 104.860 211.479, 105.656 212.773, 103.615 214.814 C 102.247 216.181, 101.494 216.248, 98.812 215.235 C 95.044 213.813, 93.701 214.577, 96.443 216.582 C 100.910 219.848, 107.538 216.821, 106.830 211.837 C 106.613 210.303, 105.135 208.802, 102.500 207.437 C 97.037 204.608, 96.897 201.406, 102.250 201.720 C 106.052 201.943, 107.311 200.717, 104.418 199.607 C 101.134 198.347, 98.023 199.035, 96.500 201.359 M 108.500 200 C 108.139 200.583, 109.156 201, 110.941 201 L 114 201 114 209 C 114 219.277, 115.822 219.483, 116.208 209.250 C 116.496 201.609, 116.539 201.496, 119.267 201.182 C 120.789 201.007, 121.775 200.445, 121.458 199.932 C 120.683 198.677, 109.280 198.737, 108.500 200 M 125 207.893 C 125 217.671, 125.212 218, 131.523 218 C 136.515 218, 136.725 216.166, 131.773 215.809 C 127.758 215.519, 127.481 215.304, 127.187 212.250 C 126.886 209.133, 127.019 209, 130.437 209 C 132.396 209, 134 208.550, 134 208 C 134 207.450, 132.395 207, 130.434 207 C 127.133 207, 126.891 206.795, 127.184 204.250 C 127.467 201.787, 127.945 201.468, 131.773 201.191 C 137.580 200.772, 136.099 199, 129.941 199 L 125 199 125 207.893 M 140 208 C 140 218.475, 141.765 220.276, 142.204 210.250 L 142.500 203.500 146.299 210.250 C 151.640 219.739, 153 219.282, 153 208 C 153 197.248, 151.216 195.825, 150.794 206.240 L 150.500 213.481 146.205 206.240 C 143.843 202.258, 141.481 199, 140.955 199 C 140.419 199, 140 202.947, 140 208 M 156 199.934 C 156 200.447, 157.238 201.010, 158.750 201.184 C 161.457 201.495, 161.505 201.621, 161.792 209.250 C 162.178 219.483, 164 219.277, 164 209 C 164 201.133, 164.042 201, 166.500 201 C 167.875 201, 169 200.550, 169 200 C 169 199.436, 166.167 199, 162.500 199 C 158.925 199, 156 199.420, 156 199.934 M 180.572 201.250 C 178.577 203.018, 177.926 204.724, 177.537 209.208 C 177.098 214.262, 177.294 215.092, 179.243 216.458 C 182.006 218.393, 187.013 218.446, 189.559 216.567 C 191.019 215.490, 191.217 214.847, 190.357 213.974 C 189.491 213.095, 188.599 213.216, 186.676 214.476 C 184.266 216.056, 184.034 216.034, 182.031 214.031 C 180.327 212.327, 180.051 211.213, 180.589 208.212 C 181.518 203.022, 183.774 200.705, 187.227 201.395 C 190.175 201.985, 191.079 200.628, 188.418 199.607 C 185.501 198.487, 183.130 198.984, 180.572 201.250 M 195.455 201.455 C 190.248 206.661, 193.575 218, 200.309 218 C 201.628 218, 203.899 216.896, 205.354 215.548 C 210.887 210.420, 207.537 199, 200.500 199 C 199.075 199, 196.805 200.105, 195.455 201.455 M 212 208 C 212 218.475, 213.765 220.276, 214.204 210.250 L 214.500 203.500 216.893 209.807 C 218.209 213.276, 219.640 215.751, 220.073 215.307 C 220.506 214.863, 221.767 212.250, 222.875 209.500 L 224.891 204.500 224.945 210.750 C 224.976 214.214, 225.446 217, 226 217 C 226.593 217, 227 213.306, 227 207.917 C 227 197.305, 225.789 196.578, 222.554 205.248 C 221.397 208.347, 220.224 211.109, 219.947 211.386 C 219.670 211.664, 218.403 208.990, 217.131 205.445 C 213.712 195.911, 212 196.763, 212 208 M 232.688 199.646 C 232.309 200.024, 232 204.083, 232 208.667 C 232 215.407, 232.287 217, 233.500 217 C 234.668 217, 235.012 215.615, 235.055 210.750 L 235.109 204.500 237.125 209.500 C 238.233 212.250, 239.509 214.878, 239.960 215.340 C 240.411 215.802, 241.560 213.777, 242.513 210.840 C 245.094 202.887, 246 202.747, 246 210.300 C 246 214.267, 246.424 217, 247.039 217 C 248.496 217, 247.853 199.778, 246.378 199.290 C 245.762 199.086, 244.117 201.975, 242.723 205.709 L 240.189 212.500 238.989 209.500 C 238.330 207.850, 237.238 204.950, 236.564 203.056 C 235.328 199.586, 233.955 198.378, 232.688 199.646 M 253 208 C 253 213.333, 253.407 217, 254 217 C 254.593 217, 255 213.333, 255 208 C 255 202.667, 254.593 199, 254 199 C 253.407 199, 253 202.667, 253 208 M 258.500 200 C 258.139 200.583, 259.156 201, 260.941 201 L 264 201 264 209 C 264 219.277, 265.822 219.483, 266.208 209.250 C 266.495 201.621, 266.543 201.495, 269.250 201.184 C 270.762 201.010, 272 200.447, 272 199.934 C 272 198.673, 259.281 198.736, 258.500 200 M 275.750 200.080 C 271.896 202.325, 274.340 207.658, 280.252 209.906 C 283.331 211.076, 283.789 213.100, 281.420 215.067 C 280.171 216.103, 279.189 216.132, 276.736 215.206 C 273.032 213.809, 271.724 214.594, 274.443 216.582 C 277.038 218.480, 281.479 218.378, 283.483 216.374 C 286.239 213.618, 284.990 209.824, 280.500 207.313 C 275.161 204.327, 275.035 201.455, 280.250 201.614 C 284.100 201.731, 285.229 200.686, 282.418 199.607 C 280.151 198.737, 277.765 198.906, 275.750 200.080 M 302 208 C 302 213.333, 302.407 217, 303 217 C 303.593 217, 304 213.333, 304 208 C 304 202.667, 303.593 199, 303 199 C 302.407 199, 302 202.667, 302 208 M 309 208 C 309 213.333, 309.407 217, 310 217 C 310.561 217, 311.031 214.036, 311.070 210.250 L 311.141 203.500 313.460 209.500 C 314.736 212.800, 316.166 215.332, 316.640 215.126 C 317.113 214.920, 318.481 212.220, 319.680 209.126 L 321.859 203.500 321.930 210.250 C 321.969 214.036, 322.439 217, 323 217 C 323.593 217, 324 213.306, 324 207.917 C 324 197.041, 322.743 196.542, 319.055 205.952 C 317.121 210.886, 316.430 211.841, 315.852 210.373 C 312.799 202.605, 310.962 199, 310.056 199 C 309.393 199, 309 202.347, 309 208 M 329 208 C 329 217.116, 330.233 219.902, 331.434 213.500 C 332.025 210.351, 332.417 210, 335.345 210 C 339.480 210, 341 208.461, 341 204.275 C 341 200.519, 338.534 199, 332.435 199 L 329 199 329 208 M 345.750 199.571 C 345.337 199.990, 345 204.083, 345 208.667 C 345 215.407, 345.287 217, 346.500 217 C 347.548 217, 348 215.944, 348 213.500 C 348 211.145, 348.464 210, 349.418 210 C 350.199 210, 351.810 211.575, 353 213.500 C 354.190 215.425, 355.576 217, 356.082 217 C 357.385 217, 357.234 216.204, 355.308 212.945 C 353.719 210.255, 353.719 209.967, 355.308 208.212 C 357.144 206.183, 357.472 203.293, 356.108 201.141 C 355.148 199.626, 346.923 198.379, 345.750 199.571 M 361.911 200.250 C 361.862 200.938, 361.749 204.983, 361.661 209.239 C 361.485 217.689, 361.693 218, 367.523 218 C 372.231 218, 372.850 216.190, 368.271 215.812 C 364.824 215.527, 364.473 215.221, 364.187 212.250 C 363.886 209.133, 364.019 209, 367.437 209 C 369.396 209, 371 208.550, 371 208 C 371 207.450, 369.425 207, 367.500 207 C 364.278 207, 364 206.762, 364 204 C 364 201.167, 364.222 201, 368 201 C 370.200 201, 372 200.550, 372 200 C 372 198.484, 362.019 198.731, 361.911 200.250 M 377.596 200.306 C 374.590 202.504, 375.949 206.166, 380.750 208.810 C 383.445 210.294, 385 211.847, 385 213.056 C 385 215.467, 380.970 216.590, 378.007 215.004 C 375.681 213.759, 374.391 214.205, 375.435 215.895 C 376.465 217.561, 382.592 218.289, 384.953 217.025 C 386.602 216.143, 387.043 215.113, 386.808 212.696 C 386.559 210.136, 385.681 209.074, 382.250 207.188 C 379.913 205.902, 378 204.239, 378 203.492 C 378 201.697, 381.140 200.771, 384.665 201.528 C 387.372 202.109, 387.412 202.065, 385.559 200.568 C 383.195 198.658, 379.994 198.553, 377.596 200.306 M 391.565 200.928 C 389.091 203.662, 390.340 206.482, 395.229 209.204 C 400.166 211.953, 400.868 213.465, 397.934 215.035 C 396.287 215.917, 395.129 215.924, 393.244 215.065 C 390.102 213.634, 388.851 214.686, 391.443 216.582 C 395.685 219.684, 402.359 216.871, 401.807 212.213 C 401.586 210.348, 400.377 209.040, 397.500 207.552 C 394.865 206.189, 393.500 204.803, 393.500 203.491 C 393.500 201.818, 394.098 201.535, 397.250 201.720 C 401.052 201.943, 402.311 200.717, 399.418 199.607 C 396.452 198.469, 393.313 198.997, 391.565 200.928 M 406 208 C 406 213.333, 406.407 217, 407 217 C 407.593 217, 408 213.333, 408 208 C 408 202.667, 407.593 199, 407 199 C 406.407 199, 406 202.667, 406 208 M 411 199.948 C 411 200.470, 412.153 204.548, 413.563 209.010 C 416.863 219.455, 418.515 219.452, 421.704 208.994 C 424.163 200.930, 424.511 198.566, 423.114 199.429 C 422.627 199.731, 421.430 202.925, 420.455 206.528 C 419.480 210.131, 418.337 213.292, 417.916 213.552 C 417.494 213.813, 416.415 211.432, 415.518 208.263 C 414.621 205.093, 413.657 201.713, 413.376 200.750 C 412.843 198.923, 411 198.301, 411 199.948 M 427.667 199.667 C 427.300 200.033, 427 204.035, 427 208.560 C 427 215.139, 427.317 216.908, 428.582 217.393 C 431.082 218.353, 436.820 218.100, 437.500 217 C 437.873 216.396, 436.510 216, 434.059 216 C 430.087 216, 430 215.925, 430 212.500 C 430 209.293, 430.247 209, 432.941 209 C 434.559 209, 436.160 208.550, 436.500 208 C 436.868 207.405, 435.677 207, 433.559 207 C 430.271 207, 430 206.771, 430 204 C 430 201.167, 430.222 201, 434 201 C 436.200 201, 438 200.550, 438 200 C 438 198.898, 428.734 198.599, 427.667 199.667 M 448 208 C 448 213.333, 448.407 217, 449 217 C 449.550 217, 450 215.425, 450 213.500 C 450 210.181, 450.177 210, 453.429 210 C 457.427 210, 460 207.841, 460 204.485 C 460 201.354, 456.471 199, 451.777 199 L 448 199 448 208 M 464 208 C 464 213.333, 464.407 217, 465 217 C 465.550 217, 466 215.425, 466 213.500 C 466 208.438, 468.955 208.805, 472.038 214.250 C 473.819 217.395, 474.538 218.032, 474.805 216.701 C 475.003 215.711, 474.415 213.756, 473.497 212.355 C 471.907 209.929, 471.927 209.739, 473.914 208.348 C 478.790 204.932, 474.895 199, 467.777 199 L 464 199 464 208 M 482.262 200.529 C 477.591 203.801, 478.528 216.341, 483.537 217.599 C 484.892 217.939, 487.021 217.960, 488.270 217.647 C 491.083 216.941, 495.234 213.188, 494.506 212.009 C 494.210 211.530, 494.425 210.856, 494.984 210.510 C 497.126 209.186, 496.001 204.679, 492.820 201.839 C 489.280 198.679, 485.563 198.217, 482.262 200.529 M 498.656 199.750 C 498.402 200.162, 497.868 202.750, 497.469 205.500 C 497.070 208.250, 496.611 211.238, 496.450 212.140 C 495.942 214.983, 498.890 218.167, 501.335 217.416 C 504.225 216.529, 504.665 216.029, 503.300 215.186 C 502.672 214.798, 501.849 213.247, 501.471 211.740 C 500.865 209.327, 501.068 209, 503.169 209 C 506.100 209, 510 211.602, 510 213.557 C 510 214.351, 509.212 215.007, 508.250 215.015 C 506.754 215.028, 506.718 215.172, 508 216 C 508.825 216.533, 510.755 216.976, 512.289 216.985 L 515.078 217 514.789 208.494 C 514.441 198.241, 512.623 196.682, 512.204 206.275 C 511.965 211.733, 511.663 212.802, 510.648 211.775 C 509.955 211.074, 509.090 209.713, 508.725 208.750 C 508.361 207.787, 507.593 207, 507.018 207 C 506.378 207, 506.559 205.597, 507.487 203.378 C 508.319 201.386, 509 199.586, 509 199.378 C 509 198.651, 499.114 199.007, 498.656 199.750 M 520.212 208.250 L 520.500 217.500 523.845 217.820 C 529.029 218.317, 531.385 216.762, 526.500 216.068 L 522.500 215.500 522.210 207.250 C 522.047 202.627, 521.481 199, 520.922 199 C 520.310 199, 520.036 202.576, 520.212 208.250 M 533.667 199.667 C 533.300 200.033, 533 204.035, 533 208.560 C 533 215.139, 533.317 216.908, 534.582 217.393 C 537.082 218.353, 542.820 218.100, 543.500 217 C 543.873 216.396, 542.510 216, 540.059 216 C 536.087 216, 536 215.925, 536 212.500 C 536 209.278, 536.238 209, 539 209 C 540.650 209, 542 208.550, 542 208 C 542 207.450, 540.650 207, 539 207 C 536.333 207, 536 206.667, 536 204 C 536 201.167, 536.222 201, 540 201 C 542.200 201, 544 200.550, 544 200 C 544 198.898, 534.734 198.599, 533.667 199.667 M 549.750 200.080 C 545.896 202.325, 548.340 207.658, 554.252 209.906 C 557.331 211.076, 557.789 213.100, 555.420 215.067 C 554.171 216.103, 553.189 216.132, 550.736 215.206 C 547.032 213.809, 545.724 214.594, 548.443 216.582 C 552.990 219.907, 559.388 217.156, 558.804 212.127 C 558.584 210.226, 557.400 208.936, 554.500 207.435 C 549.051 204.616, 548.915 201.452, 554.250 201.614 C 558.100 201.731, 559.229 200.686, 556.418 199.607 C 554.151 198.737, 551.765 198.906, 549.750 200.080 M 40.790 202.058 C 37.264 204.113, 37.663 212.739, 41.400 215.235 C 46.578 218.692, 51.469 208.970, 47.443 203.223 C 45.777 200.843, 43.544 200.452, 40.790 202.058 M 196.557 203.223 C 194.370 206.344, 194.586 211.586, 197 214 C 200.094 217.094, 202.648 216.498, 204.942 212.145 C 208.543 205.311, 200.837 197.111, 196.557 203.223 M 331.737 201.750 C 331.528 202.162, 331.279 203.764, 331.185 205.310 C 331.022 207.969, 331.213 208.103, 334.748 207.810 C 339.034 207.454, 340.453 204.535, 337.418 202.316 C 335.447 200.875, 332.339 200.565, 331.737 201.750 M 348 204.500 C 348 207.486, 348.338 208, 350.300 208 C 354.878 208, 356.900 202.742, 352.750 201.630 C 348.607 200.520, 348 200.887, 348 204.500 M 450 204.500 C 450 207.820, 450.176 208, 453.433 208 C 456.078 208, 457.023 207.502, 457.555 205.826 C 458.367 203.269, 455.900 201, 452.309 201 C 450.337 201, 450 201.511, 450 204.500 M 466 204.500 C 466 207.713, 466.243 208, 468.965 208 C 472.923 208, 475.170 204.329, 472.435 202.329 C 471.436 201.598, 469.579 201, 468.309 201 C 466.337 201, 466 201.511, 466 204.500 M 484.313 201.786 C 483.659 202.201, 482.673 203.731, 482.120 205.185 C 481.336 207.245, 481.433 207.952, 482.557 208.384 C 483.351 208.688, 484 209.815, 484 210.887 C 484 216.097, 486.566 217.434, 489.992 214.008 C 491.568 212.432, 491.874 211.140, 491.456 207.818 C 490.690 201.718, 487.996 199.444, 484.313 201.786 M 501 205.500 C 501 206.325, 501.661 207, 502.469 207 C 503.363 207, 503.712 206.414, 503.362 205.500 C 503.045 204.675, 502.384 204, 501.893 204 C 501.402 204, 501 204.675, 501 205.500 M 288 215.727 C 288 216.207, 288.559 217.159, 289.242 217.842 C 290.230 218.830, 290.185 219.267, 289.021 219.987 C 288.216 220.484, 287.919 221.253, 288.361 221.694 C 289.405 222.739, 292.145 218.989, 291.767 217.031 C 291.460 215.435, 288 214.237, 288 215.727" stroke="none" fill="#ff6801" fill-rule="evenodd"/></svg>